<svg xmlns="http://www.w3.org/2000/svg" viewBox="0 0 1200 1200" width="1200" height="1200">
  <title>Hero accent  pencil / design</title>
  <path
    fill="#000000"
    d="m348 933.47-131.95 55.172 55.172-131.95zm566.06-553.78s-135.47 141.19-199.97 206.26h-106.27c-74.25 0-134.39 60.188-134.39 134.39 0 28.406 15.516 53.203 38.484 66.422l-124.26 123.98-91.312-91.312c3.8438-1.2656 7.125-3.6562 9.4219-6.8438 47.156-10.734 84.516-48.938 92.953-98.297l0.375-2.3438 423-423zm-240.61 417.19 22.922 17.156c11.625 8.7188 13.266 25.547 3.5625 36.328-23.297 25.922-62.391 30.094-90.609 9.7031l-68.391-49.312 13.969-13.875zm-172.92-528.79c13.359-13.828 32.812-19.875 51.656-16.031l173.16 35.344c11.531 2.3438 20.531 8.6719 29.766 15.469l-167.11 167.16-38.719-14.906c-20.344-7.8281-43.406-3.1875-59.156 11.953l-85.641 82.219c-12.188 11.719-20.344 27.047-23.156 43.734l-19.594 114.98c-6.8906 40.5-42 70.125-83.062 70.125-18.094 0-32.391-14.531-32.766-32.062l27.469-226.64c1.5-12.141 6.8906-23.484 15.422-32.297zm474.47 144.42c10.359 0 18.75 8.3906 18.75 18.75v243.74c0 10.359-8.3906 18.75-18.75 18.75h-67.641c-17.484 0-34.641 4.9219-49.5 14.156l-69.188 42.984c-8.9062 5.5312-19.219 8.4844-29.719 8.4844h-208.97c-21.562 0-39.047-17.484-39.047-39.047 0-53.531 43.359-96.891 96.891-96.891h114.05c6.375 0 12-3.1875 15.422-8.0625 0.89062-0.65625 1.7812-1.3594 2.5781-2.1562l199.13-200.72zm-458.9 81.609c5.25-5.0625 12.938-6.6094 19.734-3.9844l23.156 8.9062-149.02 148.97 8.2969-48.703c1.5-8.7656 5.7656-16.828 12.188-22.969zm366.37-265.55c21.984-21.984 57.609-21.984 79.547 0l14.109 14.109c22.078 22.078 21.141 57.375 0 79.547l-33.844 33.844-93.656-93.656z"
  />
</svg>
